<svg width="24" height="24" viewBox="0 0 24 24" fill="none" xmlns="http://www.w3.org/2000/svg">
    <path
        d="M3.3391 6.45475C3.18731 6.07403 2.77717 5.89766 2.42302 6.06083C2.06887 6.224 1.90481 6.66491 2.05659 7.04563L3.3391 6.45475ZM9.2479 13.4879C9.45805 13.1408 9.36659 12.6762 9.04363 12.4503C8.72067 12.2244 8.28851 12.3227 8.07836 12.6699L9.2479 13.4879ZM6.76415 14.8412C6.554 15.1883 6.64546 15.6529 6.96842 15.8788C7.29138 16.1047 7.72354 16.0064 7.93369 15.6592L6.76415 14.8412ZM21.9435 7.04563C22.0951 6.66491 21.9312 6.224 21.577 6.06083C21.2228 5.89766 20.8127 6.07403 20.6609 6.45475L21.9435 7.04563ZM19.4136 12.9094C19.686 13.2023 20.1277 13.2023 20.4002 12.9094C20.6726 12.6165 20.6726 12.1416 20.4002 11.8487L19.4136 12.9094ZM11.3024 16.2502C11.3024 16.6644 11.6147 17.0002 12 17.0002C12.3853 17.0002 12.6977 16.6644 12.6977 16.2502H11.3024ZM16.0664 15.6592C16.2765 16.0064 16.7087 16.1047 17.0316 15.8788C17.3545 15.6529 17.446 15.1883 17.2358 14.8412L16.0664 15.6592ZM5.98181 11.4094C6.25426 11.1165 6.25426 10.6416 5.98181 10.3487C5.70936 10.0558 5.26762 10.0558 4.99517 10.3487L5.98181 11.4094ZM3.59984 11.8487C3.32739 12.1416 3.32739 12.6165 3.59984 12.9094C3.87229 13.2023 4.31403 13.2023 4.58649 12.9094L3.59984 11.8487ZM12 13.0002C9.00108 13.0002 6.84784 11.3948 5.41835 9.73985C4.7038 8.91262 4.17991 8.08303 3.83511 7.46033C3.66312 7.14969 3.53678 6.89251 3.45448 6.71556C3.41335 6.62715 3.38331 6.55894 3.36413 6.5143C3.35455 6.49199 3.34768 6.47559 3.34351 6.46552C3.34143 6.46049 3.33983 6.45656 3.3391 6.45475C3.33908 6.45471 3.33912 6.45483 3.3391 6.45475C3.33919 6.45498 3.3391 6.45475 2.69784 6.75019C2.05659 7.04563 2.05645 7.04529 2.05659 7.04563C2.05664 7.04578 2.05705 7.04679 2.05718 7.04709C2.05741 7.04768 2.0577 7.04839 2.05802 7.04919C2.05866 7.05081 2.05949 7.05285 2.06049 7.05531C2.06249 7.06022 2.06518 7.06681 2.06858 7.07502C2.07537 7.09144 2.08497 7.11434 2.09742 7.1433C2.12229 7.20121 2.15856 7.28339 2.20647 7.38638C2.30221 7.59225 2.44477 7.88194 2.63613 8.22755C3.01807 8.91735 3.5988 9.83778 4.39586 10.7605C5.98957 12.6056 8.4874 14.5002 12 14.5002V13.0002ZM15.0814 12.381C14.1787 12.763 13.1551 13.0002 12 13.0002V14.5002C13.3379 14.5002 14.5345 14.2244 15.5924 13.7768L15.0814 12.381ZM8.07836 12.6699L6.76415 14.8412L7.93369 15.6592L9.2479 13.4879L8.07836 12.6699ZM21.3022 6.75019C20.6609 6.45475 20.6608 6.45489 20.6609 6.45475C20.6609 6.45459 20.6614 6.45368 20.6614 6.45379C20.6613 6.45399 20.661 6.45471 20.6604 6.45595C20.6594 6.45842 20.6575 6.46294 20.6549 6.46943C20.6495 6.48242 20.6407 6.50328 20.6285 6.53144C20.6041 6.58776 20.5659 6.67314 20.5138 6.78286C20.4097 7.00246 20.2501 7.3185 20.0328 7.69339C19.597 8.44535 18.936 9.42216 18.0341 10.3322L18.989 11.4259C20.002 10.4037 20.7363 9.31606 21.2171 8.48665C21.4581 8.07087 21.637 7.71699 21.7569 7.46434C21.8168 7.33794 21.8621 7.23662 21.8932 7.16526C21.9085 7.12958 21.9204 7.10137 21.9289 7.08123C21.9331 7.07116 21.9364 7.06311 21.9388 7.05715C21.94 7.05417 21.9409 7.05172 21.9417 7.04979C21.9422 7.04883 21.9425 7.048 21.9427 7.04731C21.9429 7.04696 21.9434 7.04591 21.9435 7.04563C21.9435 7.04549 21.9435 7.0457 21.9435 7.04563C21.9435 7.04546 21.9435 7.04563 21.3022 6.75019ZM18.0341 10.3322C17.235 11.1384 16.2547 11.8845 15.0814 12.381L15.5924 13.7768C16.9632 13.1968 18.0898 12.3332 18.989 11.4259L18.0341 10.3322ZM18.0182 11.4094L19.4136 12.9094L20.4002 11.8487L19.0048 10.3487L18.0182 11.4094ZM11.3024 13.7502V16.2502H12.6977V13.7502H11.3024ZM14.7522 13.4879L16.0664 15.6592L17.2358 14.8412L15.9215 12.6699L14.7522 13.4879ZM4.99517 10.3487L3.59984 11.8487L4.58649 12.9094L5.98181 11.4094L4.99517 10.3487Z"
        fill="black" />
</svg>