<svg width="24" height="24" viewBox="0 0 24 24" fill="none" xmlns="http://www.w3.org/2000/svg">
    <path
        d="M20.7794 13.065C20.8299 13.2227 20.9409 13.354 21.0881 13.4299C21.2353 13.5059 21.4066 13.5203 21.5644 13.47C21.8894 13.365 22.0744 13.015 21.9694 12.685L21.9689 12.6835C21.9244 12.55 19.4199 5 11.9989 5C4.57942 5 2.07442 12.55 2.03042 12.684L2.02992 12.685C1.92492 13.015 2.10492 13.365 2.43492 13.47C2.76492 13.575 3.11492 13.395 3.21992 13.065C3.30942 12.785 5.47442 6.25 11.9994 6.25C18.5244 6.25 20.6894 12.785 20.7794 13.065ZM8.74942 13.5C8.74942 12.638 9.09183 11.8114 9.70132 11.2019C10.3108 10.5924 11.1375 10.25 11.9994 10.25C12.8614 10.25 13.688 10.5924 14.2975 11.2019C14.907 11.8114 15.2494 12.638 15.2494 13.5C15.2494 14.362 14.907 15.1886 14.2975 15.7981C13.688 16.4076 12.8614 16.75 11.9994 16.75C11.1375 16.75 10.3108 16.4076 9.70132 15.7981C9.09183 15.1886 8.74942 14.362 8.74942 13.5ZM11.9994 9C10.8059 9 9.66135 9.47411 8.81744 10.318C7.97352 11.1619 7.49942 12.3065 7.49942 13.5C7.49942 14.6935 7.97352 15.8381 8.81744 16.682C9.66135 17.5259 10.8059 18 11.9994 18C13.1929 18 14.3375 17.5259 15.1814 16.682C16.0253 15.8381 16.4994 14.6935 16.4994 13.5C16.4994 12.3065 16.0253 11.1619 15.1814 10.318C14.3375 9.47411 13.1929 9 11.9994 9Z"
        fill="black" />
</svg>