<svg width="16" height="16" viewBox="0 0 16 16" fill="none" xmlns="http://www.w3.org/2000/svg">
    <path
        d="M13.5625 11.4375H12.464C12.389 11.4375 12.3187 11.4703 12.2719 11.5281C12.1625 11.6609 12.0453 11.7891 11.9219 11.9109C11.417 12.4163 10.819 12.819 10.1609 13.0969C9.47913 13.3848 8.74634 13.5326 8.00623 13.5312C7.25779 13.5312 6.53279 13.3844 5.85154 13.0969C5.19346 12.819 4.59545 12.4163 4.09061 11.9109C3.58486 11.4073 3.18158 10.8103 2.90311 10.1531C2.61404 9.47187 2.46873 8.74843 2.46873 7.99999C2.46873 7.25156 2.61561 6.52812 2.90311 5.84687C3.18123 5.18906 3.58123 4.59687 4.09061 4.08906C4.59998 3.58124 5.19217 3.18124 5.85154 2.90312C6.53279 2.61562 7.25779 2.46874 8.00623 2.46874C8.75467 2.46874 9.47967 2.61406 10.1609 2.90312C10.8203 3.18124 11.4125 3.58124 11.9219 4.08906C12.0453 4.21249 12.1609 4.34062 12.2719 4.47187C12.3187 4.52968 12.3906 4.56249 12.464 4.56249H13.5625C13.6609 4.56249 13.7219 4.45312 13.6672 4.37031C12.4687 2.50781 10.3719 1.27499 7.98904 1.28124C4.24529 1.29062 1.24373 4.32968 1.28123 8.06874C1.31873 11.7484 4.31561 14.7187 8.00623 14.7187C10.3828 14.7187 12.4703 13.4875 13.6672 11.6297C13.7203 11.5469 13.6609 11.4375 13.5625 11.4375ZM14.9515 7.90156L12.7344 6.15156C12.6515 6.08593 12.5312 6.14531 12.5312 6.24999V7.43749H7.62498C7.55623 7.43749 7.49998 7.49374 7.49998 7.56249V8.43749C7.49998 8.50624 7.55623 8.56249 7.62498 8.56249H12.5312V9.74999C12.5312 9.85468 12.6531 9.91406 12.7344 9.84843L14.9515 8.09843C14.9665 8.08674 14.9786 8.0718 14.9869 8.05474C14.9952 8.03769 14.9995 8.01897 14.9995 7.99999C14.9995 7.98102 14.9952 7.9623 14.9869 7.94524C14.9786 7.92819 14.9665 7.91325 14.9515 7.90156Z"
        fill="black" />
</svg>